<svg width="345" height="345" viewBox="0 0 345 345" fill="none" xmlns="http://www.w3.org/2000/svg">
<path d="M76.4382 0.265656C63.6424 1.67993 48.9609 7.06763 38.3875 14.139C32.7977 17.9104 31.1141 19.3247 24.7162 25.5879C13.1326 36.9695 4.98364 52.1224 1.27958 69.1611C0.0673465 74.6161 0 79.6671 0 172.201C0 264.735 0.0673465 269.786 1.27958 275.241C8.88974 309.925 34.3467 335.382 69.0301 342.992C74.4852 344.204 79.5362 344.271 172.07 344.271C264.604 344.271 269.655 344.204 275.11 342.992C309.794 335.382 335.251 309.925 342.861 275.241C344.073 269.786 344.141 264.735 344.141 172.201C344.141 79.6671 344.073 74.6161 342.861 69.1611C336.126 38.3164 314.441 13.735 285.549 4.30643C272.214 -0.0710754 280.296 0.198303 174.764 0.130951C121.964 0.0635986 77.7178 0.130951 76.4382 0.265656ZM269.723 29.696C276.053 31.043 284.202 34.343 289.186 37.6429C302.251 46.196 312.016 60.6754 314.777 75.559C315.316 78.2529 315.518 108.559 315.518 172.471C315.518 249.044 315.316 266.284 314.575 269.854C312.353 280.36 306.696 290.866 299.153 298.678C291.543 306.49 278.949 313.157 268.241 314.976C265.278 315.447 234.837 315.649 169.376 315.515L74.7546 315.312L68.3567 313.09C59.4669 309.992 52.2609 305.547 45.7956 299.149C37.1753 290.664 31.9896 281.303 29.5651 269.854C28.2182 263.321 28.2182 81.0814 29.5651 74.5488C34.3467 52.1224 51.6547 34.6797 74.0811 29.7634C80.2097 28.4165 263.392 28.3491 269.723 29.696Z" fill="black"/>
<path d="M166.683 87.0758C163.854 88.288 160.891 90.9819 159.41 93.7431C158.399 95.4941 158.197 99.5349 157.928 126.743L157.591 157.722L126.612 158.059C92.7366 158.396 93.8141 158.261 89.7733 162.571C84.655 167.959 84.655 176.445 89.7733 181.832C93.8141 186.142 92.7366 186.008 126.612 186.344L157.591 186.681L157.928 217.661C158.265 251.536 158.13 250.458 162.44 254.499C167.828 259.617 176.314 259.617 181.701 254.499C186.011 250.458 185.877 251.536 186.213 217.661L186.55 186.681L217.53 186.344C251.405 186.008 250.327 186.142 254.368 181.832C259.486 176.445 259.486 167.959 254.368 162.571C250.327 158.261 251.405 158.396 217.53 158.059L186.55 157.722L186.213 126.743C185.877 92.8676 186.011 93.9451 181.701 89.9043C177.795 86.1329 171.532 84.988 166.683 87.0758Z" fill="black"/>
</svg>
