<svg width="459" height="381" viewBox="0 0 459 381" fill="none" xmlns="http://www.w3.org/2000/svg">
<path d="M215.762 1.1954C185.413 6.67249 160.272 29.9277 152.102 60.0068C149.408 69.8835 149.139 88.3799 151.653 98.1668C156.681 117.741 168.353 134.89 183.977 145.755C190.262 150.064 202.204 155.452 210.105 157.517C220.251 160.211 238.568 160.211 248.714 157.517C256.615 155.452 268.557 150.064 274.842 145.755C290.466 134.89 302.138 117.741 307.166 98.1668C309.68 88.3799 309.411 69.8835 306.717 60.0068C299.355 32.7111 279.601 12.3291 251.857 3.44011C245.482 1.37497 242.249 0.926041 232.103 0.656662C225.459 0.566879 218.096 0.74646 215.762 1.1954ZM241.89 28.5808C250.959 30.7358 259.489 35.6741 266.761 42.947C296.392 72.7567 281.128 123.218 239.735 131.837C227.883 134.351 217.468 132.825 205.526 126.989C179.397 114.059 169.161 82.4538 182.45 55.7867C188.735 43.2163 202.922 31.9928 216.48 28.6706C223.483 26.9646 234.797 26.9646 241.89 28.5808Z" fill="black"/>
<path d="M75.4222 76.0785C63.7497 78.9517 54.322 84.6981 45.5227 94.1259C21.9084 119.356 25.4101 160.569 52.7956 181.31C59.1705 186.159 68.6881 190.738 75.8712 192.534C82.1563 194.06 96.4327 194.06 102.808 192.534C109.811 190.828 121.214 185.171 127.32 180.323C136.478 173.05 144.918 159.492 147.792 147.55C149.408 140.636 149.228 126.809 147.432 119.716C142.045 98.7051 124.357 81.1066 103.616 76.1682C96.7021 74.552 81.7074 74.552 75.4222 76.0785ZM98.6774 102.835C107.746 105.26 117.353 114.508 120.496 123.756C122.561 130.131 122.292 139.559 119.867 146.203C116.994 153.656 108.823 161.826 101.461 164.61C89.6986 169.009 76.5895 166.585 67.5209 158.325C49.653 142.073 54.8607 113.161 77.3078 104.003C83.3236 101.489 92.0331 101.04 98.6774 102.835Z" fill="black"/>
<path d="M354.755 76.1682C334.193 81.3759 316.774 98.8847 311.387 119.716C309.591 126.809 309.412 140.636 311.028 147.55C313.901 159.492 322.341 173.05 331.5 180.323C337.605 185.171 349.008 190.828 356.012 192.534C362.387 194.06 376.663 194.06 382.948 192.534C390.131 190.738 399.649 186.159 406.024 181.31C428.381 164.43 435.385 133.094 422.635 107.145C420.121 101.937 417.517 98.5255 411.232 92.3301C403.061 84.1594 397.943 80.927 386.989 77.0661C380.793 74.8214 362.028 74.3725 354.755 76.1682ZM380.793 103.643C403.6 112.173 409.346 141.803 391.299 158.325C382.23 166.585 369.121 169.009 357.359 164.61C349.996 161.826 341.825 153.656 338.952 146.203C336.528 139.559 336.258 130.131 338.323 123.756C341.286 114.867 351.073 105.26 359.513 102.925C365.44 101.219 375.226 101.578 380.793 103.643Z" fill="black"/>
<path d="M174.1 169.01C156.86 173.23 140.609 185.082 132.258 199.448C130.552 202.501 129.116 204.027 128.308 203.758C123.728 201.962 109.183 201.334 83.7725 201.603C57.9135 201.962 55.13 202.231 48.9346 204.027C37.2622 207.529 28.8221 212.557 19.7534 221.626C10.7746 230.515 5.92603 238.506 2.06513 250.807C0 257.451 0 257.9 0 302.435C0 351.819 0 352.178 5.47709 361.336C10.6848 370.046 19.3045 376.69 29.0914 379.563C33.491 380.82 53.6934 381 229.409 381C405.125 381 425.327 380.82 429.727 379.563C439.514 376.69 448.134 370.046 453.341 361.336C458.818 352.178 458.818 351.819 458.818 302.435C458.818 257.9 458.818 257.451 456.753 250.807C452.892 238.506 448.044 230.515 439.065 221.626C429.996 212.557 421.556 207.529 409.884 204.027C403.688 202.231 400.905 201.962 375.046 201.603C349.636 201.334 335.09 201.962 330.511 203.758C329.703 204.027 328.266 202.501 326.56 199.448C320.365 188.763 309.77 179.335 297.379 173.589C284 167.394 283.013 167.304 228.781 167.394C185.952 167.394 179.756 167.573 174.1 169.01ZM279.78 195.677C287.412 197.922 292.261 200.795 297.559 206.003C302.766 211.3 305.639 216.149 307.884 223.781C309.141 228.09 309.321 236.351 309.321 291.391V354.063H229.409H149.498V291.391C149.498 223.511 149.408 224.768 154.436 214.892C156.95 209.953 164.851 201.872 169.7 199.358C179.487 194.33 179.487 194.33 229.05 194.33C268.647 194.24 275.56 194.42 279.78 195.677ZM121.484 229.527C122.292 230.066 122.561 243.624 122.561 292.199V354.063H79.1035H35.7358L32.683 351.998C26.4876 347.868 26.4876 348.227 26.4876 305.039C26.4876 282.412 26.8467 264.275 27.3854 261.492C30.4382 245.42 43.8167 232.041 59.7092 229.347C65.6353 228.36 119.867 228.539 121.484 229.527ZM398.211 229.347C414.822 231.951 428.29 244.971 431.433 261.492C431.972 264.275 432.331 282.412 432.331 305.039C432.331 348.227 432.331 347.868 426.135 351.998L423.083 354.063H379.625H336.257L336.437 291.84L336.706 229.707L339.849 229.168C345.236 228.18 392.106 228.36 398.211 229.347Z" fill="black"/>
</svg>
