<svg width="22" height="15" viewBox="0 0 22 15" fill="none" xmlns="http://www.w3.org/2000/svg">
<g filter="url(#filter0_d_697_473)">
<path d="M6.33609 2.92745C7.48385 1.93298 9.03647 1.06974 10.9052 1.05516C12.774 1.04057 14.3399 1.87948 15.5031 2.85592C16.6632 3.83239 17.4919 5.00257 17.9138 5.81755C18.0545 6.0912 18.0571 6.4167 17.9207 6.69252C17.5114 7.51399 16.7012 8.69695 15.5564 9.6914C14.4087 10.6889 12.856 11.5521 10.9873 11.5667C9.1185 11.5813 7.55259 10.7424 6.38945 9.76592C5.90875 9.36053 5.48379 8.92186 5.12079 8.48867L2.48897 10.0681C2.12223 10.289 1.6531 10.2329 1.34712 9.93069C1.04114 9.62847 0.975562 9.15712 1.18485 8.7792L2.51618 6.3767L1.14752 3.99526C0.932361 3.62065 0.993526 3.14832 1.29475 2.84136C1.59597 2.5344 2.06122 2.47104 2.43432 2.68613L5.09048 4.2273C5.44669 3.78851 5.86474 3.34325 6.33906 2.93042L6.33609 2.92745ZM14.2475 6.28516C14.2456 6.03172 14.1443 5.78944 13.966 5.61161C13.7877 5.43378 13.547 5.33497 13.2969 5.33693C13.0467 5.33888 12.8076 5.44143 12.6321 5.62202C12.4566 5.80261 12.3591 6.04644 12.3611 6.29988C12.3631 6.55332 12.4643 6.7956 12.6426 6.97343C12.8209 7.15126 13.0616 7.25007 13.3118 7.24811C13.5619 7.24616 13.8011 7.14361 13.9765 6.96302C14.152 6.78243 14.2495 6.5386 14.2475 6.28516Z" fill="#F2F2F2"/>
</g>
<defs>
<filter id="filter0_d_697_473" x="0.0195312" y="0.0549316" width="21.002" height="14.512" filterUnits="userSpaceOnUse" color-interpolation-filters="sRGB">
<feFlood flood-opacity="0" result="BackgroundImageFix"/>
<feColorMatrix in="SourceAlpha" type="matrix" values="0 0 0 0 0 0 0 0 0 0 0 0 0 0 0 0 0 0 127 0" result="hardAlpha"/>
<feOffset dx="1" dy="1"/>
<feGaussianBlur stdDeviation="1"/>
<feComposite in2="hardAlpha" operator="out"/>
<feColorMatrix type="matrix" values="0 0 0 0 0 0 0 0 0 0 0 0 0 0 0 0 0 0 0.25 0"/>
<feBlend mode="normal" in2="BackgroundImageFix" result="effect1_dropShadow_697_473"/>
<feBlend mode="normal" in="SourceGraphic" in2="effect1_dropShadow_697_473" result="shape"/>
</filter>
</defs>
</svg>
