<svg width="381" height="380" viewBox="0 0 381 380" fill="none" xmlns="http://www.w3.org/2000/svg">
<path d="M130.751 0.781006C129.339 1.37531 101.109 13.8561 67.9755 28.5655C3.93738 57.0187 2.60016 57.7616 0.891482 63.4819C0.222871 65.7106 0 103.227 0 217.857C0 368.592 0 369.26 1.4858 372.381C3.7888 376.987 8.02334 379.661 13.2979 379.735C17.161 379.735 21.247 378.027 76.296 353.511C108.612 339.173 135.431 327.361 135.802 327.361C136.174 327.361 162.844 339.099 195.086 353.437C248.872 377.432 254.072 379.587 257.936 379.661C262.096 379.735 263.433 379.141 317.962 351.877C356.073 332.858 374.571 323.275 376.131 321.64C377.394 320.377 378.88 318.149 379.326 316.812C380.069 314.954 380.292 278.478 380.292 162.511L380.366 10.5873L378.806 7.31854C376.503 2.63824 372.342 0.112396 366.919 0.112396C362.759 0.112396 360.902 0.929565 310.013 26.3368L257.416 52.5613L198.801 26.4854C156.827 7.83856 139.22 0.335266 136.768 0.0380859C134.837 -0.110474 132.237 0.186676 130.751 0.781006ZM122.579 168.677C122.579 274.986 122.356 302.845 121.687 303.365C120.944 303.959 32.4648 343.407 28.3789 344.968C27.636 345.265 27.4874 318.372 27.636 210.799L27.8588 76.1855L74.2902 55.4586C99.846 44.0922 121.167 34.7316 121.687 34.7316C122.356 34.6573 122.579 61.9218 122.579 168.677ZM197.463 55.5329L244.415 76.4084V210.874C244.415 335.607 244.34 345.339 243.152 344.893C242.483 344.596 221.088 335.161 195.606 323.869L149.323 303.365V169.048C149.323 95.1296 149.546 34.6573 149.918 34.6573C150.215 34.6573 171.61 44.0179 197.463 55.5329ZM352.878 169.717V303.959L312.39 324.241L271.902 344.448V210.131V75.8884L312.242 55.6815C334.38 44.5379 352.581 35.4745 352.73 35.4745C352.804 35.4002 352.878 95.7982 352.878 169.717Z" fill="black"/>
</svg>
