<svg width="18" height="16" viewBox="0 0 18 16" fill="none" xmlns="http://www.w3.org/2000/svg">
<g filter="url(#filter0_d_697_482)">
<path d="M2.75 7V4.42857H7.125V7H2.75ZM2.75 8.71429H7.125V11.2857H2.75V8.71429ZM8.875 11.2857V8.71429H13.25V11.2857H8.875ZM13.25 7H8.875V4.42857H13.25V7ZM2.75 1C1.78477 1 1 1.76875 1 2.71429V11.2857C1 12.2313 1.78477 13 2.75 13H13.25C14.2152 13 15 12.2313 15 11.2857V2.71429C15 1.76875 14.2152 1 13.25 1H2.75Z" fill="#F2F2F2"/>
</g>
<defs>
<filter id="filter0_d_697_482" x="0" y="0" width="18" height="16" filterUnits="userSpaceOnUse" color-interpolation-filters="sRGB">
<feFlood flood-opacity="0" result="BackgroundImageFix"/>
<feColorMatrix in="SourceAlpha" type="matrix" values="0 0 0 0 0 0 0 0 0 0 0 0 0 0 0 0 0 0 127 0" result="hardAlpha"/>
<feOffset dx="1" dy="1"/>
<feGaussianBlur stdDeviation="1"/>
<feComposite in2="hardAlpha" operator="out"/>
<feColorMatrix type="matrix" values="0 0 0 0 0 0 0 0 0 0 0 0 0 0 0 0 0 0 0.25 0"/>
<feBlend mode="normal" in2="BackgroundImageFix" result="effect1_dropShadow_697_482"/>
<feBlend mode="normal" in="SourceGraphic" in2="effect1_dropShadow_697_482" result="shape"/>
</filter>
</defs>
</svg>
