<svg width="334" height="334" viewBox="0 0 334 334" fill="none" xmlns="http://www.w3.org/2000/svg">
<path d="M163.396 0.4104C162.401 0.694611 160.625 1.47617 159.488 2.11565C158.28 2.68405 136.041 24.5678 109.966 50.7146C66.7665 93.9848 62.5745 98.461 61.7929 101.374C58.7377 112.955 68.1165 123.045 79.5557 120.558L83.4635 119.705L117.213 86.027C135.757 67.4827 151.246 52.3488 151.531 52.3488C151.815 52.3488 152.028 95.9742 152.028 149.334C152.028 243.405 152.099 246.461 153.378 249.018C159.417 260.813 175.759 260.387 180.733 248.308C181.727 245.963 181.869 234.808 181.869 148.978C181.869 95.8321 182.082 52.3488 182.367 52.3488C182.651 52.3488 198.14 67.4827 216.684 86.027L250.434 119.705L254.342 120.558C265.781 123.045 275.16 112.955 272.104 101.374C271.323 98.461 267.131 93.9848 223.932 50.7146C197.216 23.9283 175.404 2.61299 173.912 1.83144C170.785 0.197266 165.954 -0.4422 163.396 0.4104Z" fill="black"/>
<path d="M11.2041 182.514C6.79894 183.722 2.32272 188.269 0.972749 192.746C-0.661427 198.359 -0.0930183 268.344 1.61221 275.52C8.43312 303.799 28.0432 324.261 55.0427 331.224C64.4214 333.64 71.8818 333.782 171.922 333.498C279.635 333.214 272.885 333.498 284.964 329.377C304.787 322.698 322.124 305.575 329.158 285.823C333.35 273.815 333.35 273.886 333.705 234.24C334.061 192.817 334.061 192.106 329.584 187.062C322.834 179.459 310.827 180.596 305.711 189.335L303.722 192.675L303.366 231.042C302.94 268.202 302.94 269.552 301.448 273.531C296.048 287.812 287.025 296.622 272.814 301.454C269.049 302.733 264.715 302.804 166.948 302.804C68.8266 302.804 64.8477 302.733 61.082 301.454C52.2717 298.47 45.4508 293.851 39.9798 287.386C36.6404 283.407 32.3063 274.099 31.3116 268.77C30.8142 266.07 30.53 251.505 30.53 229.195V193.882L28.5406 190.117C25.2722 183.793 17.954 180.596 11.2041 182.514Z" fill="black"/>
</svg>
