<svg width="343" height="358" viewBox="0 0 343 358" fill="none" xmlns="http://www.w3.org/2000/svg">
<path d="M164.851 0.793854C154.212 3.75345 145.413 10.3125 134.055 23.8307C131.975 26.3903 128.696 29.4299 126.936 30.6297C124.136 32.4695 123.016 32.7094 117.577 32.6295C113.818 32.5495 108.538 31.7496 103.579 30.3898C96.5401 28.47 94.6204 28.2301 86.7815 28.55C74.2232 29.11 67.7441 31.6696 62.3848 38.0687C54.9458 47.0275 51.9863 55.5063 50.5464 71.984C50.0665 76.7834 49.1066 82.7025 48.3068 85.1022C47.0269 88.7817 46.1471 89.9016 42.3876 92.5412C39.9879 94.221 34.7886 96.8606 30.7892 98.3804C17.351 103.66 10.7919 108.459 4.39282 117.898C0.793314 123.097 0.553347 123.977 0.153402 129.576C-0.486509 140.295 2.23312 149.893 8.95219 160.132C14.3114 168.211 17.911 177.25 17.1111 180.609C16.3912 184.129 11.5918 194.527 9.27214 197.487C3.99287 204.446 0.793314 213.724 0.233391 223.723C-0.246543 231.322 -0.166554 231.722 2.23312 236.601C7.03245 246.36 17.0311 254.599 29.8293 259.478C38.948 262.918 46.1471 267.637 47.5869 271.077C49.4266 275.396 50.2265 280.115 51.1064 290.434C52.1462 303.872 55.7457 312.911 63.1047 320.59C70.9436 328.909 86.7815 331.468 103.579 327.069C108.298 325.869 114.058 324.989 117.657 324.909C124.856 324.749 126.456 325.709 134.055 334.508C146.373 348.586 154.052 354.025 165.731 356.825C170.69 358.025 171.49 358.025 176.369 356.825C188.127 353.865 196.206 348.026 208.285 333.708C210.364 331.148 213.644 328.109 215.404 326.909C218.283 324.989 219.323 324.749 224.762 324.909C228.522 324.989 234.041 325.869 238.84 327.149C245.799 329.069 247.719 329.309 255.558 328.989C271.636 328.269 278.435 324.269 285.074 311.551C288.914 304.352 290.273 298.913 291.073 288.274C291.473 283.235 292.353 276.916 293.153 274.116C294.513 269.397 294.913 268.837 299.392 265.797C302.032 264.038 307.471 261.238 311.55 259.638C315.63 257.958 320.669 255.639 322.829 254.359C328.108 251.319 336.587 242.521 339.467 237.241C341.706 233.082 341.706 232.762 341.306 224.043C340.906 214.044 339.147 208.045 334.747 201.086C330.188 193.807 327.308 188.128 325.948 183.249C324.669 178.929 324.669 178.369 325.948 174.53C327.548 169.571 330.668 163.171 333.147 159.972C338.507 152.853 342.346 140.775 342.346 131.176C342.346 126.377 341.946 124.617 339.867 120.457C335.387 111.419 324.589 102.38 313.87 98.7003C307.231 96.3807 299.712 92.5412 296.912 90.0616C294.033 87.3419 292.193 80.3829 291.153 67.5846C290.033 53.9865 286.274 44.7078 278.275 36.309C274.196 31.9896 264.517 29.03 254.358 29.03C250.199 28.95 245.32 29.3499 243.56 29.8298C241.8 30.2298 238.201 31.1897 235.561 31.9096C233.001 32.6295 228.042 33.1894 224.682 33.1894C219.243 33.1894 218.283 32.9494 215.404 30.8697C213.644 29.5899 210.444 26.4703 208.285 23.9907C196.366 9.9126 192.127 6.47308 182.368 2.55362C175.489 -0.166016 170.29 -0.645935 164.851 0.793854ZM174.689 26.7103C175.969 27.5102 182.048 33.4294 188.287 39.7485C197.486 49.1872 200.606 51.8268 205.245 54.2265C215.004 59.2658 226.602 59.9057 241.16 56.2262C248.439 54.4665 257.238 53.5066 260.277 54.3065C262.917 54.9464 264.357 59.6657 265.637 71.4241C266.917 84.2224 268.516 90.7014 271.876 97.6605C276.675 107.659 283.394 113.178 300.512 121.177C314.19 127.656 316.75 129.496 316.75 132.696C316.75 135.815 314.67 140.375 309.551 148.693C302.352 160.452 298.512 173.25 299.552 181.969C300.432 188.848 303.552 197.727 307.631 204.766C312.67 213.485 317.55 223.563 317.55 225.243C317.55 227.723 311.87 231.242 296.592 238.361C287.954 242.361 277.795 249.959 274.915 254.599C271.556 259.798 268.596 268.517 267.477 275.956C266.837 279.875 265.797 286.914 265.157 291.474C264.517 296.113 263.397 300.752 262.677 301.792C261.397 303.712 261.157 303.712 254.838 303.312C251.319 303.072 245.32 302.192 241.56 301.232C226.282 297.633 214.924 298.273 205.245 303.392C200.686 305.792 197.166 308.751 187.168 318.91C179.489 326.589 173.889 331.628 172.53 331.948C169.33 332.748 167.49 331.308 154.372 317.95C143.654 307.072 142.214 305.872 135.655 302.672L128.456 299.153L119.257 299.233C112.938 299.313 107.419 299.873 101.979 301.072C97.58 302.032 91.0209 303.072 87.4214 303.312L80.7823 303.792L79.5824 300.992C78.9425 299.393 77.8227 293.713 77.1828 288.274C75.1031 272.676 73.8232 266.837 70.7037 260.358C65.9043 250.119 59.3452 244.6 42.5476 236.681C28.2295 229.882 25.5899 228.042 25.5899 224.923C25.5899 222.523 29.2694 214.604 34.0687 206.765C39.9879 197.167 43.7474 183.569 42.7875 175.57C41.9076 168.691 38.7881 159.812 34.7086 152.773C29.6693 144.054 24.79 133.975 24.79 132.296C24.79 129.816 30.4692 126.297 45.7471 119.178C54.3859 115.178 64.5445 107.579 67.4241 102.94C70.7837 97.7405 73.7432 89.0217 74.8631 81.5827C75.503 77.5833 76.5429 70.6242 77.1828 66.0648C77.8227 61.4255 78.9425 56.7861 79.6624 55.7463C80.9423 53.8265 81.1822 53.8265 87.5014 54.2265C91.0209 54.4665 97.26 55.4263 101.179 56.4662C106.779 57.826 110.538 58.2259 117.977 58.2259C133.495 58.1459 138.614 55.5063 154.372 39.3485C168.85 24.6306 170.21 23.7507 174.689 26.7103Z" fill="black"/>
<path d="M223.963 128.376C222.843 128.856 206.205 144.934 187.008 164.211L151.973 199.166L139.014 186.208C125.016 172.37 123.656 171.49 117.017 172.77C113.098 173.49 108.299 178.289 107.579 182.209C106.219 189.168 106.619 189.648 127.016 210.125C143.254 226.362 146.373 229.162 149.013 229.562C156.372 230.922 154.532 232.522 199.006 188.128C228.442 158.692 240.2 146.454 240.84 144.454C242.6 139.095 240.68 133.335 235.801 129.736C233.321 127.896 226.922 127.176 223.963 128.376Z" fill="black"/>
</svg>
