<svg width="24" height="24" viewBox="0 0 24 24" fill="none" xmlns="http://www.w3.org/2000/svg">
<circle cx="12" cy="12" r="12" fill="url(#paint0_linear_977_253)"/>
<g filter="url(#filter0_d_977_253)">
<path d="M14.3333 17.1586L9.66667 15.8718V6.84138L14.3333 8.12809V17.1586ZM15.1111 17.1304V8.07184L18.2003 6.87888C18.5844 6.73122 19 7.00309 19 7.40153V15.2484C19 15.4781 18.8542 15.6843 18.633 15.7711L15.1111 17.1281V17.1304ZM5.36701 8.22888L8.88889 6.87184V15.9304L5.79965 17.1211C5.41563 17.2687 5 16.9968 5 16.5984V8.75153C5 8.52184 5.14583 8.31559 5.36701 8.22888Z" fill="white"/>
</g>
<defs>
<filter id="filter0_d_977_253" x="4" y="5.83813" width="18" height="14.3237" filterUnits="userSpaceOnUse" color-interpolation-filters="sRGB">
<feFlood flood-opacity="0" result="BackgroundImageFix"/>
<feColorMatrix in="SourceAlpha" type="matrix" values="0 0 0 0 0 0 0 0 0 0 0 0 0 0 0 0 0 0 127 0" result="hardAlpha"/>
<feOffset dx="1" dy="1"/>
<feGaussianBlur stdDeviation="1"/>
<feComposite in2="hardAlpha" operator="out"/>
<feColorMatrix type="matrix" values="0 0 0 0 0 0 0 0 0 0 0 0 0 0 0 0 0 0 0.25 0"/>
<feBlend mode="normal" in2="BackgroundImageFix" result="effect1_dropShadow_977_253"/>
<feBlend mode="normal" in="SourceGraphic" in2="effect1_dropShadow_977_253" result="shape"/>
</filter>
<linearGradient id="paint0_linear_977_253" x1="3.5" y1="21" x2="19.5" y2="3" gradientUnits="userSpaceOnUse">
<stop stop-color="#5EEAD4"/>
<stop offset="1" stop-color="#0EA5E9"/>
</linearGradient>
</defs>
</svg>
