<svg width="24" height="24" viewBox="0 0 24 24" fill="none" xmlns="http://www.w3.org/2000/svg">
<circle cx="12" cy="12" r="12" fill="url(#paint0_linear_697_477)"/>
<g filter="url(#filter0_d_697_477)">
<path d="M6.75 12V9.42857H11.125V12H6.75ZM6.75 13.7143H11.125V16.2857H6.75V13.7143ZM12.875 16.2857V13.7143H17.25V16.2857H12.875ZM17.25 12H12.875V9.42857H17.25V12ZM6.75 6C5.78477 6 5 6.76875 5 7.71429V16.2857C5 17.2313 5.78477 18 6.75 18H17.25C18.2152 18 19 17.2313 19 16.2857V7.71429C19 6.76875 18.2152 6 17.25 6H6.75Z" fill="#F2F2F2"/>
</g>
<defs>
<filter id="filter0_d_697_477" x="4" y="5" width="18" height="16" filterUnits="userSpaceOnUse" color-interpolation-filters="sRGB">
<feFlood flood-opacity="0" result="BackgroundImageFix"/>
<feColorMatrix in="SourceAlpha" type="matrix" values="0 0 0 0 0 0 0 0 0 0 0 0 0 0 0 0 0 0 127 0" result="hardAlpha"/>
<feOffset dx="1" dy="1"/>
<feGaussianBlur stdDeviation="1"/>
<feComposite in2="hardAlpha" operator="out"/>
<feColorMatrix type="matrix" values="0 0 0 0 0 0 0 0 0 0 0 0 0 0 0 0 0 0 0.25 0"/>
<feBlend mode="normal" in2="BackgroundImageFix" result="effect1_dropShadow_697_477"/>
<feBlend mode="normal" in="SourceGraphic" in2="effect1_dropShadow_697_477" result="shape"/>
</filter>
<linearGradient id="paint0_linear_697_477" x1="3.5" y1="21" x2="19.5" y2="3" gradientUnits="userSpaceOnUse">
<stop stop-color="#6EE7B7"/>
<stop offset="1" stop-color="#7DD3FC"/>
</linearGradient>
</defs>
</svg>
