<?xml version="1.0" standalone="no"?><svg xmlns="http://www.w3.org/2000/svg" viewBox="0 0 1440 320"><path fill="#e0f2fe" fill-opacity="1" d="M0,160L30,181.3C60,203,120,245,180,256C240,267,300,245,360,234.7C420,224,480,224,540,192C600,160,660,96,720,85.3C780,75,840,117,900,112C960,107,1020,53,1080,74.7C1140,96,1200,192,1260,202.7C1320,213,1380,139,1410,101.3L1440,64L1440,0L1410,0C1380,0,1320,0,1260,0C1200,0,1140,0,1080,0C1020,0,960,0,900,0C840,0,780,0,720,0C660,0,600,0,540,0C480,0,420,0,360,0C300,0,240,0,180,0C120,0,60,0,30,0L0,0Z"></path></svg>